<svg xmlns="http://www.w3.org/2000/svg" width="500" height="416" viewBox="0 0 500 416" fill="none"><path d="M500 293.048C500 360.484 445.973 415.152 379.328 415.152C312.682 415.152 258.655 360.484 258.655 293.048C258.655 225.612 312.682 170.945 379.328 170.945C445.973 170.945 500 225.612 500 293.048Z" fill="#56BA7D"></path><path d="M379.325 0C263.48 136.756 244.972 284.908 261.062 317.469L355.187 219.786C322.301 153.237 377.723 72.7501 403.454 24.4207L379.325 0Z" fill="#56BA7D"></path><path d="M243.939 293.048C243.939 360.484 189.913 415.152 123.267 415.152C56.6216 415.152 2.59471 360.484 2.59471 293.048C2.59471 225.612 56.6216 170.945 123.267 170.945C189.913 170.945 243.939 225.612 243.939 293.048Z" fill="#56BA7D"></path><path d="M123.265 0C7.41932 136.756 -11.0884 284.908 5.00125 317.469L99.1262 219.786C66.2407 153.237 121.662 72.7501 147.393 24.4207L123.265 0Z" fill="#56BA7D"></path></svg>